PathFileType	4	(x/y/z)	S06_PSF_T04
DataRate	CameraRate	NumFrames	NumMarkers	Units	OrigDataRate	OrigDataStartFrame	OrigNumFrames
240	240	4	51	mm	240	1	411
Frame#	Time	Sternum			R.Acromium			L.Acromium			Top.Head			R.ASIS			L.ASIS			R.PSIS			L.PSIS			R.Great.Tro			L.Great.Tro			R.Iliac.Crest			L.Iliac.Crest			V.Sacral			R.Thigh.Upper.Post			R.Thigh.Lower.Ant			R.Thigh.Lower.Post			R.Thigh.Upper.Ant			R.Knee.Lat			R.Knee.Med			R.Shank.Upper.Post			R.Shank.Lower.Ant			R.Shank.Lower.Post			R.Shank.Upper.Ant			R.Ankle.Lat			R.Ankle.Med			R.Heel.Upper			R.Heel.Med			R.Heel.Lat			R.Toe.Lat			R.Toe.Med			R.Toe.Tip			L.Thigh.Upper.Post			L.Thigh.Lower.Ant			L.Thigh.Lower.Post			L.Thigh.Upper.Ant			L.Knee.Lat			L.Knee.Med			L.Shank.Upper.Post			L.Shank.Lower.Ant			L.Shank.Lower.Post			L.Shank.Upper.Ant			L.Ankle.Lat			L.Ankle.Med			L.Heel.Upper			L.Heel.Med			L.Heel.Lat			L.Toe.Lat			L.Toe.Med			L.Toe.Tip			Cervical.Spine			Back			
		X1	Y1	Z1	X2	Y2	Z2	X3	Y3	Z3	X4	Y4	Z4	X5	Y5	Z5	X6	Y6	Z6	X7	Y7	Z7	X8	Y8	Z8	X9	Y9	Z9	X10	Y10	Z10	X11	Y11	Z11	X12	Y12	Z12	X13	Y13	Z13	X14	Y14	Z14	X15	Y15	Z15	X16	Y16	Z16	X17	Y17	Z17	X18	Y18	Z18	X19	Y19	Z19	X20	Y20	Z20	X21	Y21	Z21	X22	Y22	Z22	X23	Y23	Z23	X24	Y24	Z24	X25	Y25	Z25	X26	Y26	Z26	X27	Y27	Z27	X28	Y28	Z28	X29	Y29	Z29	X30	Y30	Z30	X31	Y31	Z31	X32	Y32	Z32	X33	Y33	Z33	X34	Y34	Z34	X35	Y35	Z35	X36	Y36	Z36	X37	Y37	Z37	X38	Y38	Z38	X39	Y39	Z39	X40	Y40	Z40	X41	Y41	Z41	X42	Y42	Z42	X43	Y43	Z43	X44	Y44	Z44	X45	Y45	Z45	X46	Y46	Z46	X47	Y47	Z47	X48	Y48	Z48	X49	Y49	Z49	X50	Y50	Z50	X51	Y51	Z51	

1	0	NaN	NaN	NaN	-1624.9	1493.4	523.33	-1663.2	1494.6	174.57	-1583.7	1806.2	344.99	NaN	NaN	NaN	NaN	NaN	NaN	-1760.8	1070.7	387.6	-1767.1	1073.7	308	-1635	975.4	533.6	-1648.6	973.18	174.36	-1653.9	1129.6	513.71	-1635	1123.5	194.9	-1779.9	1038.9	352.57	NaN	NaN	NaN	NaN	NaN	NaN	-1727.4	655.54	486.35	-1652	721.95	498.18	-1729	538.51	464.38	-1722.9	550.5	337.32	-1837.8	331.11	451.24	-1786.5	255.97	423.59	-1857.2	258.32	432.04	-1770.4	324.29	444.61	NaN	NaN	NaN	-1850.9	137.4	315.5	-1940.2	90.141	349.22	-1931.6	56.981	320.07	-1936.5	59.315	383.83	-1759.3	44.056	431.3	-1731.2	47.311	310.55	-1663.9	55.694	357.03	-1493.1	744.4	189.74	NaN	NaN	NaN	-1481.3	654.62	204.14	-1451	774.45	239.67	-1464.8	564.7	220.49	-1451.6	570.7	344	-1434.5	337.87	224.33	-1352.8	301.83	221.01	-1414.5	267.94	238.38	-1375.3	368.73	212.37	-1317.9	149.2	232.41	-1314.2	171.47	319.65	NaN	NaN	NaN	NaN	NaN	NaN	-1357.4	57.162	245.81	-1193.5	131.74	209.4	NaN	NaN	NaN	-1118.4	190.55	274.21	NaN	NaN	NaN	-1761.4	1276.4	358.72
2	0.0041667	NaN	NaN	NaN	-1620.2	1492.8	523.2	-1658.5	1493.9	174.43	-1579.4	1805.6	344.72	NaN	NaN	NaN	NaN	NaN	NaN	-1756.3	1070	387.26	-1762.3	1072.9	307.64	-1630.6	974.86	533.38	-1644.1	972.59	174.06	-1649.1	1128.9	513.44	-1630	1122.7	194.62	-1775	1038.2	352.19	NaN	NaN	NaN	NaN	NaN	NaN	-1723.1	655.15	486.22	-1648.1	721.54	498.33	-1725.9	538.36	464.42	-1718.9	550.08	337.27	-1835.2	331.49	451.2	-1784.7	256.11	423.63	-1856.1	259.07	431.9	-1768.4	324.22	444.47	NaN	NaN	NaN	-1850.4	138.03	315.48	-1939.7	91.193	349.26	-1931.3	58.056	320.05	-1936.2	60.288	383.82	-1759.2	44.034	431.28	-1731	47.329	310.5	-1663.9	55.338	357.2	-1489.2	743.21	189.64	NaN	NaN	NaN	-1477.6	653.47	204.39	-1446.7	773.42	239.11	-1461.2	563.59	221.02	-1447.4	570.1	344.42	-1429.7	336.88	225.28	-1347.9	301.17	221.91	-1409.3	267.09	239.46	-1370.7	367.97	213.14	-1312.2	148.7	233.53	-1308.4	171.32	320.77	NaN	NaN	NaN	NaN	NaN	NaN	-1350.5	56.121	247.71	-1187.3	131.61	210.28	NaN	NaN	NaN	-1112.8	191.27	274.46	NaN	NaN	NaN	-1756.6	1275.7	358.53
3	0.0083333	NaN	NaN	NaN	-1615.4	1492.1	523.07	-1653.7	1493.2	174.27	-1574.9	1805	344.43	NaN	NaN	NaN	NaN	NaN	NaN	-1751.5	1069.3	386.9	-1757.4	1072.2	307.27	-1625.9	974.32	533.15	-1639.4	971.97	173.76	-1644.1	1128.1	513.15	-1624.8	1121.8	194.33	-1769.9	1037.4	351.8	NaN	NaN	NaN	NaN	NaN	NaN	-1718.7	654.76	486.09	-1644	721.11	498.49	-1722.6	538.2	464.48	-1714.7	549.63	337.24	-1832.4	331.89	451.18	-1782.7	256.26	423.67	-1854.8	259.85	431.78	-1766.2	324.17	444.34	NaN	NaN	NaN	-1849.8	138.71	315.48	-1939.3	92.321	349.31	-1931	59.209	320.03	-1936	61.334	383.82	-1759	44.01	431.25	-1730.8	47.352	310.46	-1663.9	54.976	357.36	-1485.1	741.99	189.54	NaN	NaN	NaN	-1473.8	652.29	204.65	-1442.1	772.37	238.53	-1457.3	562.45	221.57	-1442.9	569.49	344.85	-1424.8	335.86	226.27	-1342.8	300.45	222.83	-1404.1	266.19	240.58	-1365.9	367.15	213.95	-1306.6	148.12	234.68	-1302.6	171.1	321.93	NaN	NaN	NaN	NaN	NaN	NaN	-1343.6	55.028	249.65	-1181.1	131.37	211.21	NaN	NaN	NaN	-1107.2	191.85	274.77	NaN	NaN	NaN	-1751.7	1274.9	358.33
4	0.0125	NaN	NaN	NaN	-1610.3	1491.4	522.92	-1648.6	1492.5	174.11	-1570.3	1804.4	344.13	NaN	NaN	NaN	NaN	NaN	NaN	-1746.6	1068.5	386.54	-1752.2	1071.4	306.88	-1621.1	973.77	532.91	-1634.5	971.34	173.47	-1638.9	1127.3	512.85	-1619.5	1121	194.02	-1764.7	1036.6	351.4	NaN	NaN	NaN	NaN	NaN	NaN	-1714.1	654.36	485.96	-1639.6	720.67	498.64	-1719.2	538.04	464.56	-1710.3	549.17	337.22	-1829.5	332.31	451.19	-1780.7	256.43	423.73	-1853.3	260.65	431.69	-1763.9	324.12	444.2	NaN	NaN	NaN	-1849.2	139.44	315.49	-1938.7	93.527	349.37	-1930.7	60.443	320.02	-1935.7	62.456	383.83	-1758.9	43.986	431.23	-1730.6	47.381	310.42	-1664	54.614	357.51	-1480.9	740.75	189.44	NaN	NaN	NaN	-1469.7	651.09	204.93	-1437.4	771.3	237.93	-1453.3	561.3	222.13	-1438.2	568.87	345.29	-1419.8	334.79	227.28	-1337.7	299.64	223.79	-1398.8	265.23	241.73	-1361	366.26	214.78	-1300.9	147.44	235.87	-1296.8	170.79	323.13	NaN	NaN	NaN	NaN	NaN	NaN	-1336.8	53.89	251.59	-1175	131	212.19	NaN	NaN	NaN	-1101.6	192.27	275.16	-1685	1545.9	353.95	-1746.6	1274.2	358.12
